<?xml version="1.0" encoding="UTF-8" standalone="no"?>
<svg width="200px" height="200px" viewBox="0 0 200 200" version="1.1" xmlns="http://www.w3.org/2000/svg" xmlns:xlink="http://www.w3.org/1999/xlink" xmlns:sketch="http://www.bohemiancoding.com/sketch/ns">
    <!-- Generator: Sketch 3.3.1 (12005) - http://www.bohemiancoding.com/sketch -->
    <title>logos_cartofant_cartodb_light</title>
    <desc>Created with Sketch.</desc>
    <defs></defs>
    <g id="Page-1" stroke="none" stroke-width="1" fill="none" fill-rule="evenodd" sketch:type="MSPage">
        <g id="logos_cartofant_cartodb_light" sketch:type="MSLayerGroup" fill="#2E3C43">
            <g id="Page-1" sketch:type="MSShapeGroup">
                <path d="M0,20.0001277 C0,8.95436216 8.94946575,0 20.0001277,0 L179.999872,0 C191.045638,0 200,8.94946575 200,20.0001277 L200,179.999872 C200,191.045638 191.050534,200 179.999872,200 L20.0001277,200 C8.95436216,200 0,191.050534 0,179.999872 L0,20.0001277 L0,20.0001277 Z M94.0619636,148.673495 C87.8128678,148.673495 87.3888643,149.46084 87.3888643,149.46084 L88.9237705,159.077516 C88.9237705,159.077516 90.2901327,160 93.859463,160 C97.4287933,160 98.5928203,159.077516 98.5928203,159.077516 L100.695488,149.51339 C100.695488,149.51339 100.311225,148.673495 94.0619636,148.673495 L94.0619636,148.673495 L94.0619636,148.673495 Z M137.136746,77.3743708 L136.794205,77.1060564 C136.794205,77.1060564 137.403524,76.8211257 137.734746,76.5023898 C138.38207,75.878178 138.75865,75.0980361 138.630012,75.1843093 C137.519026,75.9267169 135.348197,75.5650899 135.348197,75.5650899 C135.348197,75.5650899 136.09954,75.4262671 136.544281,75.1394538 C137.223827,74.702522 137.420626,74.0986098 137.337263,74.1567255 C136.794205,74.5279293 136.205541,74.6369576 135.796904,74.6369576 C133.230493,74.6444881 132.814173,72.437483 130.437043,72.437483 C129.460562,72.437483 127.407053,73.4368275 126.76923,72.4450135 C123.271861,64.1424899 118.004782,52.1406973 112.870307,40 C91.6678965,44.2936862 82.2410873,79.9805735 102.856816,86.3199324 C91.647159,83.1230777 86.2211194,72.1654851 87.9206864,62.6423681 C80.2463206,65.2542187 70.2498495,69.3324675 62.4430446,78.750567 C57.7645467,84.3943382 57.7836318,90.4300221 57.7836318,102.371816 C57.5526275,106.043337 54.5,107.439915 54.5,107.439915 C54.5,107.439915 58.1374914,107.590115 59.2994529,105.735488 C64.30909,114.203109 88.4940661,135.986838 88.4940661,140.967108 C88.4940661,140.967108 87.6272217,143.30516 87.8921826,143.337001 C90.0934156,143.592055 100.339646,144.096598 100.339646,144.096598 C100.786287,142.403466 99.7546991,141.214304 99.7546991,140.025879 C99.7546991,127.909329 117.119017,116.670571 119.159308,115.292574 C119.887929,115.720011 121.157792,116.09498 121.780413,116.363212 C127.626573,118.881259 120.854991,133.148254 114.795012,133.148254 C107.813411,133.148254 118.733404,121.686283 118.953006,121.412566 C119.679728,120.507025 117.698263,121.344956 117.071759,120.741289 C116.689478,120.371886 117.119017,119.383837 116.167075,120.150637 C116.167075,120.150637 101.666268,132.552036 111.920182,136.200475 C131.355029,143.117553 159.784915,98.6256455 137.136746,77.3743708 L137.136746,77.3743708 L137.136746,77.3743708 Z" id="logos_cartofant_cartodb_light"></path>
            </g>
        </g>
    </g>
</svg>